<svg xmlns="http://www.w3.org/2000/svg" viewBox="0 0 960 432" width="960" height="432" role="img" aria-labelledby="t d">
  <!-- generated by maintainers/scripts/generate-pack-map.py from .claude-plugin/marketplace.json, the plugin.json files and the plugins/ tree; edit the source, never this file -->
  <title id="t">Map of the packs in skill-library</title>
  <desc id="d">12 packs. turn-reduction, data-wrangler, verification-kit, consistency-checker, deploy-ops each need foundry-core, which Claude Code installs with them. decks, frontend-design, long-projects, project-starters, agent-tooling, voice-and-editing install on their own.</desc>
  <style>
    .surface { fill: #fcfcfb; }
    .box { fill: #ffffff; stroke: #52514e; stroke-width: 1.5; }
    .base { stroke: #2a78d6; stroke-width: 2.5; }
    .edge { stroke: #2a78d6; stroke-width: 2; fill: none; }
    .head { fill: #2a78d6; }
    .name { font: 600 14px -apple-system, "Segoe UI", Helvetica, Arial, sans-serif; fill: #0b0b0b; }
    .count, .note { font: 12px -apple-system, "Segoe UI", Helvetica, Arial, sans-serif; fill: #52514e; }
    .row { font: 600 13px -apple-system, "Segoe UI", Helvetica, Arial, sans-serif; fill: #0b0b0b;
           stroke: #fcfcfb; stroke-width: 6px; paint-order: stroke; stroke-linejoin: round; }
    @media (prefers-color-scheme: dark) {
      .surface { fill: #1a1a19; }
      .box { fill: #262624; stroke: #c3c2b7; }
      .base, .edge { stroke: #3987e5; }
      .head { fill: #3987e5; }
      .name, .row { fill: #ffffff; }
      .row { stroke: #1a1a19; }
      .count, .note { fill: #c3c2b7; }
    }
  </style>
  <rect class="surface" width="960" height="432" rx="8"/>
  <path class="edge" d="M 105.6 190 V 146 H 480.0 V 125"/>
  <path class="edge" d="M 292.8 190 V 146 H 480.0 V 125"/>
  <path class="edge" d="M 480.0 190 V 146 H 480.0 V 125"/>
  <path class="edge" d="M 667.2 190 V 146 H 480.0 V 125"/>
  <path class="edge" d="M 854.4 190 V 146 H 480.0 V 125"/>
  <path class="head" d="M 480.0 117 l -6 10 h 12 z"/>
  <text class="row" x="18" y="32">The base pack</text>
  <text class="row" x="18" y="176">Packs that need the base pack (Claude Code installs it with them)</text>
  <text class="row" x="18" y="308">Packs that install on their own</text>
  <rect class="box base" x="370.0" y="52" width="220.0" height="64" rx="6"/>
  <text class="name" x="480.0" y="79" text-anchor="middle">foundry-core</text>
  <text class="count" x="480.0" y="99" text-anchor="middle">6 skills</text>
  <rect class="box" x="18.0" y="190" width="175.2" height="64" rx="6"/>
  <text class="name" x="105.6" y="217" text-anchor="middle">turn-reduction</text>
  <text class="count" x="105.6" y="237" text-anchor="middle">4 skills</text>
  <rect class="box" x="205.2" y="190" width="175.2" height="64" rx="6"/>
  <text class="name" x="292.8" y="217" text-anchor="middle">data-wrangler</text>
  <text class="count" x="292.8" y="237" text-anchor="middle">1 skill, 1 agent</text>
  <rect class="box" x="392.4" y="190" width="175.2" height="64" rx="6"/>
  <text class="name" x="480.0" y="217" text-anchor="middle">verification-kit</text>
  <text class="count" x="480.0" y="237" text-anchor="middle">7 skills, 2 agents</text>
  <rect class="box" x="579.6" y="190" width="175.2" height="64" rx="6"/>
  <text class="name" x="667.2" y="217" text-anchor="middle">consistency-checker</text>
  <text class="count" x="667.2" y="237" text-anchor="middle">1 skill, 1 agent</text>
  <rect class="box" x="766.8" y="190" width="175.2" height="64" rx="6"/>
  <text class="name" x="854.4" y="217" text-anchor="middle">deploy-ops</text>
  <text class="count" x="854.4" y="237" text-anchor="middle">2 skills, 1 agent</text>
  <rect class="box" x="18.0" y="322" width="144.0" height="64" rx="6"/>
  <text class="name" x="90.0" y="349" text-anchor="middle">decks</text>
  <text class="count" x="90.0" y="369" text-anchor="middle">6 skills</text>
  <rect class="box" x="174.0" y="322" width="144.0" height="64" rx="6"/>
  <text class="name" x="246.0" y="349" text-anchor="middle">frontend-design</text>
  <text class="count" x="246.0" y="369" text-anchor="middle">7 skills, 1 agent</text>
  <rect class="box" x="330.0" y="322" width="144.0" height="64" rx="6"/>
  <text class="name" x="402.0" y="349" text-anchor="middle">long-projects</text>
  <text class="count" x="402.0" y="369" text-anchor="middle">11 skills, 2 agents</text>
  <rect class="box" x="486.0" y="322" width="144.0" height="64" rx="6"/>
  <text class="name" x="558.0" y="349" text-anchor="middle">project-starters</text>
  <text class="count" x="558.0" y="369" text-anchor="middle">6 skills</text>
  <rect class="box" x="642.0" y="322" width="144.0" height="64" rx="6"/>
  <text class="name" x="714.0" y="349" text-anchor="middle">agent-tooling</text>
  <text class="count" x="714.0" y="369" text-anchor="middle">3 skills, 1 agent</text>
  <rect class="box" x="798.0" y="322" width="144.0" height="64" rx="6"/>
  <text class="name" x="870.0" y="349" text-anchor="middle">voice-and-editing</text>
  <text class="count" x="870.0" y="369" text-anchor="middle">13 skills</text>
  <text class="note" x="18" y="416">12 packs, 67 skills, 9 agents. An arrow points from a pack to the pack it needs.</text>
</svg>
